<svg
  width="19"
  height="20"
  viewBox="0 0 19 20"
  fill="black"
  xmlns="http://www.w3.org/2000/svg"
>
  <path
    fill-rule="evenodd"
    clip-rule="evenodd"
    d="M17.2746 6.63306C17.695 6.00347 18.0928 5.4077 18.5001 5.00041C18.5428 4.95773 18.5855 4.91471 18.6283 4.8714C19.0538 6.17999 19.1171 7.59375 18.8021 8.94743C18.4258 10.5649 17.5322 11.9997 16.269 13.0145C15.3407 13.7475 14.2493 14.222 13.0972 14.3937C11.9451 14.5652 10.7702 14.4283 9.68272 13.9955L4.6553 19.2876C4.44216 19.5133 4.18822 19.6924 3.90824 19.8147C3.62826 19.937 3.32779 20 3.02431 20C2.72083 20 2.42036 19.937 2.14038 19.8147C1.8604 19.6924 1.60646 19.5133 1.39332 19.2876L0.672334 18.5304C0.241612 18.0759 0 17.4622 0 16.8227C0 16.1832 0.241612 15.5695 0.672334 15.115L5.70755 9.8148C5.23447 8.5114 5.12947 7.09357 5.40512 5.72973C5.68078 4.36588 6.32545 3.11332 7.26254 2.12094C8.26468 1.06248 9.55828 0.35741 10.9626 0.104164C12.1686 -0.113304 13.4046 0.0117326 14.5427 0.460593C14.5294 0.473841 14.516 0.487115 14.5027 0.500414C14.1708 0.832299 13.7147 1.19933 13.2178 1.59911C11.0836 3.31624 8.19827 5.63776 11.1828 8.37518C14.2392 11.1786 15.8809 8.72002 17.2746 6.63306Z"
  />
</svg>
